<?xml version="1.0" encoding="utf-8"?>
<!-- Generator: Adobe Illustrator 23.0.2, SVG Export Plug-In . SVG Version: 6.00 Build 0)  -->
<svg version="1.1" id="Capa_1" xmlns="http://www.w3.org/2000/svg" xmlns:xlink="http://www.w3.org/1999/xlink" x="0px" y="0px"
	 viewBox="0 0 337.79 428.64" style="enable-background:new 0 0 337.79 428.64;" xml:space="preserve">
<style type="text/css">
	.st0{fill:#FFCC00;}
	.st1{fill:#e1b55d;}
	.st2{fill:#c0c0c0;}
	.st3{fill:#FFFFFF;}
</style>
<g>
	<rect x="103.58" y="68.45" class="st0" width="122.05" height="42.39"/>
	<rect x="148.02" y="13.22" class="st0" width="42.39" height="63.34"/>
	<ellipse class="st1" cx="167.54" cy="263.46" rx="159.96" ry="165.18"/>
	<ellipse class="st2" cx="168.9" cy="375.8" rx="111.81" ry="43.83"/>
	<ellipse class="st2" cx="164.88" cy="149.24" rx="111.81" ry="43.83"/>
	<g id="Layer_2_6_">
		<g>
			<path class="st3" d="M113.4,249.19l36.63,17.85c0.15,0.07,0.25,0.23,0.25,0.39s-0.09,0.32-0.24,0.39L139.58,273
				c-0.98,0.48-1.45,1.61-1.11,2.65c0.34,1.04,1.4,1.66,2.47,1.46l10.23-1.86c0.14,0,0.27,0.07,0.35,0.18
				c0.1,0.14,0.11,0.32,0.03,0.46l-18.31,34.41c-0.51,0.96-0.24,2.16,0.65,2.8c0.88,0.64,2.1,0.53,2.86-0.25l27.66-28.66
				c0.11-0.12,0.28-0.17,0.45-0.11c0.16,0.05,0.27,0.19,0.3,0.35l1.64,11.24c0.16,1.08,1.08,1.87,2.17,1.87c0,0,0.01,0,0.01,0
				c1.09-0.01,2.01-0.82,2.16-1.9l1.5-11.18c0.02-0.16,0.14-0.3,0.3-0.36c0.16-0.05,0.34-0.01,0.45,0.11l27.63,28.62
				c0.43,0.44,1,0.67,1.57,0.67c0.01,0,0.01,0,0.02,0c1.21,0,2.19-0.98,2.19-2.19c0-0.46-0.15-0.9-0.39-1.25l-18.3-34.4
				c-0.08-0.15-0.07-0.33,0.03-0.46c0.08-0.12,0.2-0.2,0.43-0.18l10.23,1.74c0.14,0.02,0.27,0.03,0.41,0.03
				c1.2-0.01,2.17-0.99,2.17-2.19c0-0.94-0.59-1.74-1.42-2.05l-10.05-4.82c-0.15-0.07-0.25-0.23-0.25-0.4c0-0.17,0.1-0.32,0.25-0.39
				l36.48-17.78c0.98-0.48,1.46-1.61,1.12-2.65c-0.34-1.04-1.39-1.66-2.46-1.48l-39.24,6.93c-0.14,0-0.27-0.07-0.35-0.18
				c-0.1-0.13-0.11-0.31-0.03-0.46l4.68-8.91c0.51-0.97,0.23-2.16-0.66-2.79c-0.89-0.64-2.11-0.52-2.86,0.27l-7.17,7.52
				c-0.11,0.12-0.27,0.17-0.45,0.11c-0.16-0.05-0.27-0.19-0.3-0.35l-5.6-39.89c-0.15-1.08-1.08-1.88-2.17-1.88
				c-1.09,0-2.02,0.8-2.17,1.88l-5.66,40.32c-0.02,0.16-0.14,0.3-0.29,0.35c-0.16,0.05-0.34,0.01-0.45-0.11l-7.58-7.77
				c-0.76-0.78-1.98-0.88-2.86-0.23c-0.88,0.65-1.15,1.84-0.63,2.8l4.64,8.6c0.08,0.15,0.07,0.33-0.03,0.46
				c-0.08,0.11-0.21,0.17-0.43,0.17l-38.69-6.83c-1.07-0.19-2.13,0.44-2.46,1.48C111.94,247.59,112.42,248.71,113.4,249.19z"/>
			<path class="st3" d="M238.29,105.76c0.13-0.64,0.2-1.29,0.2-1.96c0-7.82,0-15.64,0-23.45v-5.86c0-3.68-2.02-7.07-5.27-8.81
				c-9.51-5.1-19.05-9.06-28.6-11.88c1.99-4.71,3.04-9.81,3.04-15.04C207.65,17.38,190.27,0,168.9,0
				c-21.37,0-38.75,17.38-38.75,38.75c0,5.23,1.05,10.33,3.04,15.04c-9.56,2.83-19.09,6.78-28.6,11.88
				c-3.25,1.74-5.27,5.13-5.27,8.82c0,9.77,0,19.53,0,29.3c0,0.68,0.07,1.34,0.2,1.97C40.89,132.28,0,191.33,0,259.74
				c0,93.13,75.77,168.9,168.9,168.9s168.9-75.77,168.9-168.9C337.8,191.33,296.91,132.28,238.29,105.76z M168.9,110.84
				c40.01,0,76.38,15.86,103.15,41.63c-25.05,14.31-62.23,22.67-102.31,22.67c-40.11,0-78.38-8.77-103.35-23.29
				C93.11,126.45,129.21,110.84,168.9,110.84z M168.9,20c10.34,0,18.75,8.41,18.75,18.75c0,3.41-0.92,6.7-2.63,9.58h-32.23
				c-1.71-2.88-2.63-6.17-2.63-9.58C150.15,28.41,158.56,20,168.9,20z M119.31,80.6c33.31-16.2,65.86-16.2,99.17,0
				c0,5.89,0,11.78,0,17.67c-15.69-4.83-32.33-7.43-49.58-7.43s-33.9,2.6-49.58,7.43C119.31,92.38,119.32,86.49,119.31,80.6z
				 M53.52,165.73c27.98,17.61,70.51,27.94,116.22,27.94c44.98,0,87.1-10.08,115.09-27.25c20.6,25.55,32.96,58.01,32.96,93.31
				c0,35.07-12.2,67.35-32.56,92.82c-27.98-17.72-70.64-28.13-116.5-28.13c-45.63,0-88.29,10.37-116.28,27.99
				C32.15,326.97,20,294.75,20,259.74C20,224.12,32.58,191.38,53.52,165.73z M65.12,366.4c25.06-14.78,62.83-23.43,103.62-23.43
				c40.36,0,78.85,8.88,103.81,23.56c-26.83,26.04-63.39,42.1-103.64,42.1C128.58,408.64,91.95,392.52,65.12,366.4z"/>
		</g>
	</g>
</g>
</svg>
